<?plantuml 1.2026.2?><svg xmlns="http://www.w3.org/2000/svg" xmlns:xlink="http://www.w3.org/1999/xlink" contentStyleType="text/css" data-diagram-type="CLASS" height="1072px" preserveAspectRatio="none" style="width:205px;height:1072px;background:#FFFFFF;" version="1.1" viewBox="0 0 205 1072" width="205px" zoomAndPan="magnify"><defs/><g><!--class Controller--><g class="entity" data-qualified-name="Controller" data-source-line="1" id="ent0002"><rect fill="#F1F1F1" height="80.5938" rx="2.5" ry="2.5" style="stroke:#181818;stroke-width:0.5;" width="143.79" x="31" y="7"/><ellipse cx="65.1777" cy="23" fill="#ADD1B2" rx="11" ry="11" style="stroke:#181818;stroke-width:1;"/><path d="M68.1465,28.6406 Q67.5684,28.9375 66.9277,29.0781 Q66.2871,29.2344 65.584,29.2344 Q63.084,29.2344 61.7559,27.5938 Q60.4434,25.9375 60.4434,22.8125 Q60.4434,19.6875 61.7559,18.0313 Q63.084,16.375 65.584,16.375 Q66.2871,16.375 66.9277,16.5313 Q67.584,16.6875 68.1465,16.9844 L68.1465,19.7031 Q67.5215,19.125 66.9277,18.8594 Q66.334,18.5781 65.709,18.5781 Q64.3652,18.5781 63.6777,19.6563 Q62.9902,20.7188 62.9902,22.8125 Q62.9902,24.9063 63.6777,25.9844 Q64.3652,27.0469 65.709,27.0469 Q66.334,27.0469 66.9277,26.7813 Q67.5215,26.5 68.1465,25.9219 L68.1465,28.6406 Z " fill="#000000"/><text fill="#000000" font-family="sans-serif" font-size="14" lengthAdjust="spacing" textLength="69.1729" x="83.4395" y="27.8467">Controller</text><line style="stroke:#181818;stroke-width:0.5;" x1="32" x2="173.79" y1="39" y2="39"/><text fill="#000000" font-family="sans-serif" font-size="14" lengthAdjust="spacing" textLength="120.3945" x="37" y="55.9951">&#171;ControllerBase&#187;</text><line style="stroke:#181818;stroke-width:0.5;" x1="32" x2="173.79" y1="63.2969" y2="63.2969"/><g data-visibility-modifier="PUBLIC_METHOD"><ellipse cx="42" cy="76.9453" fill="#84BE84" rx="3" ry="3" style="stroke:#038048;stroke-width:1;"/></g><text fill="#000000" font-family="sans-serif" font-size="14" lengthAdjust="spacing" textLength="117.79" x="51" y="80.292">HandleRequest()</text></g><!--class IService--><g class="entity" data-qualified-name="IService" data-source-line="6" id="ent0003"><rect fill="#F1F1F1" height="64.2969" rx="2.5" ry="2.5" style="stroke:#181818;stroke-width:0.5;" width="191.915" x="7" y="165"/><ellipse cx="70.7725" cy="181" fill="#B4A7E5" rx="11" ry="11" style="stroke:#181818;stroke-width:1;"/><path d="M66.6943,176.7656 L66.6943,174.6094 L74.085,174.6094 L74.085,176.7656 L71.6162,176.7656 L71.6162,184.8438 L74.085,184.8438 L74.085,187 L66.6943,187 L66.6943,184.8438 L69.1631,184.8438 L69.1631,176.7656 L66.6943,176.7656 Z " fill="#000000"/><text fill="#000000" font-family="sans-serif" font-size="14" font-style="italic" lengthAdjust="spacing" textLength="55.8701" x="91.2725" y="185.8467">IService</text><line style="stroke:#181818;stroke-width:0.5;" x1="8" x2="197.915" y1="197" y2="197"/><line style="stroke:#181818;stroke-width:0.5;" x1="8" x2="197.915" y1="205" y2="205"/><g data-visibility-modifier="PUBLIC_METHOD"><ellipse cx="18" cy="218.6484" fill="#84BE84" rx="3" ry="3" style="stroke:#038048;stroke-width:1;"/></g><text fill="#000000" font-family="sans-serif" font-size="14" lengthAdjust="spacing" textLength="165.915" x="27" y="221.9951">ExecuteBusinessLogic()</text></g><!--class ServiceImpl--><g class="entity" data-qualified-name="ServiceImpl" data-source-line="10" id="ent0004"><rect fill="#F1F1F1" height="64.2969" rx="2.5" ry="2.5" style="stroke:#181818;stroke-width:0.5;" width="191.915" x="7" y="306"/><ellipse cx="57.5654" cy="322" fill="#ADD1B2" rx="11" ry="11" style="stroke:#181818;stroke-width:1;"/><path d="M60.5342,327.6406 Q59.9561,327.9375 59.3154,328.0781 Q58.6748,328.2344 57.9717,328.2344 Q55.4717,328.2344 54.1436,326.5938 Q52.8311,324.9375 52.8311,321.8125 Q52.8311,318.6875 54.1436,317.0313 Q55.4717,315.375 57.9717,315.375 Q58.6748,315.375 59.3154,315.5313 Q59.9717,315.6875 60.5342,315.9844 L60.5342,318.7031 Q59.9092,318.125 59.3154,317.8594 Q58.7217,317.5781 58.0967,317.5781 Q56.7529,317.5781 56.0654,318.6563 Q55.3779,319.7188 55.3779,321.8125 Q55.3779,323.9063 56.0654,324.9844 Q56.7529,326.0469 58.0967,326.0469 Q58.7217,326.0469 59.3154,325.7813 Q59.9092,325.5 60.5342,324.9219 L60.5342,327.6406 Z " fill="#000000"/><text fill="#000000" font-family="sans-serif" font-size="14" lengthAdjust="spacing" textLength="82.2842" x="78.0654" y="326.8467">ServiceImpl</text><line style="stroke:#181818;stroke-width:0.5;" x1="8" x2="197.915" y1="338" y2="338"/><line style="stroke:#181818;stroke-width:0.5;" x1="8" x2="197.915" y1="346" y2="346"/><g data-visibility-modifier="PUBLIC_METHOD"><ellipse cx="18" cy="359.6484" fill="#84BE84" rx="3" ry="3" style="stroke:#038048;stroke-width:1;"/></g><text fill="#000000" font-family="sans-serif" font-size="14" lengthAdjust="spacing" textLength="165.915" x="27" y="362.9951">ExecuteBusinessLogic()</text></g><!--class IRepository--><g class="entity" data-qualified-name="IRepository" data-source-line="14" id="ent0005"><rect fill="#F1F1F1" height="96.8906" rx="2.5" ry="2.5" style="stroke:#181818;stroke-width:0.5;" width="169.9922" x="18" y="447"/><ellipse cx="59.456" cy="463" fill="#B4A7E5" rx="11" ry="11" style="stroke:#181818;stroke-width:1;"/><path d="M55.3778,458.7656 L55.3778,456.6094 L62.7685,456.6094 L62.7685,458.7656 L60.2997,458.7656 L60.2997,466.8438 L62.7685,466.8438 L62.7685,469 L55.3778,469 L55.3778,466.8438 L57.8466,466.8438 L57.8466,458.7656 L55.3778,458.7656 Z " fill="#000000"/><text fill="#000000" font-family="sans-serif" font-size="14" font-style="italic" lengthAdjust="spacing" textLength="79.2012" x="79.3351" y="467.8467">IRepository</text><line style="stroke:#181818;stroke-width:0.5;" x1="19" x2="186.9922" y1="479" y2="479"/><line style="stroke:#181818;stroke-width:0.5;" x1="19" x2="186.9922" y1="487" y2="487"/><g data-visibility-modifier="PUBLIC_METHOD"><ellipse cx="29" cy="500.6484" fill="#84BE84" rx="3" ry="3" style="stroke:#038048;stroke-width:1;"/></g><text fill="#000000" font-family="sans-serif" font-size="14" lengthAdjust="spacing" textLength="121.2832" x="38" y="503.9951">GetByIdAsync(id)</text><g data-visibility-modifier="PUBLIC_METHOD"><ellipse cx="29" cy="516.9453" fill="#84BE84" rx="3" ry="3" style="stroke:#038048;stroke-width:1;"/></g><text fill="#000000" font-family="sans-serif" font-size="14" lengthAdjust="spacing" textLength="120.6406" x="38" y="520.292">AddAsync(entity)</text><g data-visibility-modifier="PUBLIC_METHOD"><ellipse cx="29" cy="533.2422" fill="#84BE84" rx="3" ry="3" style="stroke:#038048;stroke-width:1;"/></g><text fill="#000000" font-family="sans-serif" font-size="14" lengthAdjust="spacing" textLength="143.9922" x="38" y="536.5889">UpdateAsync(entity)</text></g><!--class RepositoryImpl--><g class="entity" data-qualified-name="RepositoryImpl" data-source-line="20" id="ent0006"><rect fill="#F1F1F1" height="96.8906" rx="2.5" ry="2.5" style="stroke:#181818;stroke-width:0.5;" width="169.9922" x="18" y="621"/><ellipse cx="47.5696" cy="637" fill="#ADD1B2" rx="11" ry="11" style="stroke:#181818;stroke-width:1;"/><path d="M50.5384,642.6406 Q49.9603,642.9375 49.3196,643.0781 Q48.679,643.2344 47.9759,643.2344 Q45.4759,643.2344 44.1478,641.5938 Q42.8353,639.9375 42.8353,636.8125 Q42.8353,633.6875 44.1478,632.0313 Q45.4759,630.375 47.9759,630.375 Q48.679,630.375 49.3196,630.5313 Q49.9759,630.6875 50.5384,630.9844 L50.5384,633.7031 Q49.9134,633.125 49.3196,632.8594 Q48.7259,632.5781 48.1009,632.5781 Q46.7571,632.5781 46.0696,633.6563 Q45.3821,634.7188 45.3821,636.8125 Q45.3821,638.9063 46.0696,639.9844 Q46.7571,641.0469 48.1009,641.0469 Q48.7259,641.0469 49.3196,640.7813 Q49.9134,640.5 50.5384,639.9219 L50.5384,642.6406 Z " fill="#000000"/><text fill="#000000" font-family="sans-serif" font-size="14" lengthAdjust="spacing" textLength="105.6152" x="64.8073" y="641.8467">RepositoryImpl</text><line style="stroke:#181818;stroke-width:0.5;" x1="19" x2="186.9922" y1="653" y2="653"/><line style="stroke:#181818;stroke-width:0.5;" x1="19" x2="186.9922" y1="661" y2="661"/><g data-visibility-modifier="PUBLIC_METHOD"><ellipse cx="29" cy="674.6484" fill="#84BE84" rx="3" ry="3" style="stroke:#038048;stroke-width:1;"/></g><text fill="#000000" font-family="sans-serif" font-size="14" lengthAdjust="spacing" textLength="121.2832" x="38" y="677.9951">GetByIdAsync(id)</text><g data-visibility-modifier="PUBLIC_METHOD"><ellipse cx="29" cy="690.9453" fill="#84BE84" rx="3" ry="3" style="stroke:#038048;stroke-width:1;"/></g><text fill="#000000" font-family="sans-serif" font-size="14" lengthAdjust="spacing" textLength="120.6406" x="38" y="694.292">AddAsync(entity)</text><g data-visibility-modifier="PUBLIC_METHOD"><ellipse cx="29" cy="707.2422" fill="#84BE84" rx="3" ry="3" style="stroke:#038048;stroke-width:1;"/></g><text fill="#000000" font-family="sans-serif" font-size="14" lengthAdjust="spacing" textLength="143.9922" x="38" y="710.5889">UpdateAsync(entity)</text></g><!--class DbContext--><g class="entity" data-qualified-name="DbContext" data-source-line="26" id="ent0007"><rect fill="#F1F1F1" height="96.8906" rx="2.5" ry="2.5" style="stroke:#181818;stroke-width:0.5;" width="189.8232" x="8" y="795"/><ellipse cx="61.2827" cy="811" fill="#ADD1B2" rx="11" ry="11" style="stroke:#181818;stroke-width:1;"/><path d="M64.2515,816.6406 Q63.6733,816.9375 63.0327,817.0781 Q62.3921,817.2344 61.689,817.2344 Q59.189,817.2344 57.8608,815.5938 Q56.5483,813.9375 56.5483,810.8125 Q56.5483,807.6875 57.8608,806.0313 Q59.189,804.375 61.689,804.375 Q62.3921,804.375 63.0327,804.5313 Q63.689,804.6875 64.2515,804.9844 L64.2515,807.7031 Q63.6265,807.125 63.0327,806.8594 Q62.439,806.5781 61.814,806.5781 Q60.4702,806.5781 59.7827,807.6563 Q59.0952,808.7188 59.0952,810.8125 Q59.0952,812.9063 59.7827,813.9844 Q60.4702,815.0469 61.814,815.0469 Q62.439,815.0469 63.0327,814.7813 Q63.6265,814.5 64.2515,813.9219 L64.2515,816.6406 Z " fill="#000000"/><text fill="#000000" font-family="sans-serif" font-size="14" lengthAdjust="spacing" textLength="74.7578" x="81.7827" y="815.8467">DbContext</text><line style="stroke:#181818;stroke-width:0.5;" x1="9" x2="196.8232" y1="827" y2="827"/><text fill="#000000" font-family="sans-serif" font-size="14" lengthAdjust="spacing" textLength="71.1895" x="28" y="843.9951">&#171;EF Core&#187;</text><g data-visibility-modifier="PUBLIC_FIELD"><ellipse cx="19" cy="856.9453" fill="none" rx="3" ry="3" style="stroke:#038048;stroke-width:1;"/></g><text fill="#000000" font-family="sans-serif" font-size="14" lengthAdjust="spacing" textLength="163.8232" x="28" y="860.292">DbSet~Entity~ Entities</text><line style="stroke:#181818;stroke-width:0.5;" x1="9" x2="196.8232" y1="867.5938" y2="867.5938"/><g data-visibility-modifier="PUBLIC_METHOD"><ellipse cx="19" cy="881.2422" fill="#84BE84" rx="3" ry="3" style="stroke:#038048;stroke-width:1;"/></g><text fill="#000000" font-family="sans-serif" font-size="14" lengthAdjust="spacing" textLength="147.9092" x="28" y="884.5889">SaveChangesAsync()</text></g><!--class BaseEntity--><g class="entity" data-qualified-name="BaseEntity" data-source-line="32" id="ent0008"><rect fill="#F1F1F1" height="96.8906" rx="2.5" ry="2.5" style="stroke:#181818;stroke-width:0.5;" width="173.2598" x="16.5" y="969"/><ellipse cx="61.3984" cy="985" fill="#ADD1B2" rx="11" ry="11" style="stroke:#181818;stroke-width:1;"/><path d="M64.3672,990.6406 Q63.7891,990.9375 63.1484,991.0781 Q62.5078,991.2344 61.8047,991.2344 Q59.3047,991.2344 57.9766,989.5938 Q56.6641,987.9375 56.6641,984.8125 Q56.6641,981.6875 57.9766,980.0313 Q59.3047,978.375 61.8047,978.375 Q62.5078,978.375 63.1484,978.5313 Q63.8047,978.6875 64.3672,978.9844 L64.3672,981.7031 Q63.7422,981.125 63.1484,980.8594 Q62.5547,980.5781 61.9297,980.5781 Q60.5859,980.5781 59.8984,981.6563 Q59.2109,982.7188 59.2109,984.8125 Q59.2109,986.9063 59.8984,987.9844 Q60.5859,989.0469 61.9297,989.0469 Q62.5547,989.0469 63.1484,988.7813 Q63.7422,988.5 64.3672,987.9219 L64.3672,990.6406 Z " fill="#000000"/><text fill="#000000" font-family="sans-serif" font-size="14" lengthAdjust="spacing" textLength="74.9629" x="81.8984" y="989.8467">BaseEntity</text><line style="stroke:#181818;stroke-width:0.5;" x1="17.5" x2="188.7598" y1="1001" y2="1001"/><g data-visibility-modifier="PUBLIC_FIELD"><ellipse cx="27.5" cy="1014.6484" fill="none" rx="3" ry="3" style="stroke:#038048;stroke-width:1;"/></g><text fill="#000000" font-family="sans-serif" font-size="14" lengthAdjust="spacing" textLength="35.7178" x="36.5" y="1017.9951">int Id</text><g data-visibility-modifier="PUBLIC_FIELD"><ellipse cx="27.5" cy="1030.9453" fill="none" rx="3" ry="3" style="stroke:#038048;stroke-width:1;"/></g><text fill="#000000" font-family="sans-serif" font-size="14" lengthAdjust="spacing" textLength="143.3838" x="36.5" y="1034.292">DateTime CreatedAt</text><g data-visibility-modifier="PUBLIC_FIELD"><ellipse cx="27.5" cy="1047.2422" fill="none" rx="3" ry="3" style="stroke:#038048;stroke-width:1;"/></g><text fill="#000000" font-family="sans-serif" font-size="14" lengthAdjust="spacing" textLength="147.2598" x="36.5" y="1050.5889">DateTime UpdatedAt</text><line style="stroke:#181818;stroke-width:0.5;" x1="17.5" x2="188.7598" y1="1057.8906" y2="1057.8906"/></g><!--link Controller to IService--><g class="link" data-entity-1="ent0002" data-entity-2="ent0003" data-link-type="dependency" data-source-line="38" id="lnk9"><path codeLine="38" d="M103,88.03 C103,112.09 103,136.4 103,158.78" fill="none" id="Controller-to-IService" style="stroke:#181818;stroke-width:1;stroke-dasharray:7,7;"/><polygon fill="#181818" points="103,164.78,107,155.78,103,159.78,99,155.78,103,164.78" style="stroke:#181818;stroke-width:1;"/><text fill="#000000" font-family="sans-serif" font-size="13" lengthAdjust="spacing" textLength="76.0894" x="104" y="131.0669">depends on</text></g><!--reverse link IService to ServiceImpl--><g class="link" data-entity-1="ent0003" data-entity-2="ent0004" data-link-type="extension" data-source-line="39" id="lnk10"><path codeLine="39" d="M103,247.19 C103,270.09 103,283.04 103,305.91" fill="none" id="IService-backto-ServiceImpl" style="stroke:#181818;stroke-width:1;stroke-dasharray:7,7;"/><polygon fill="none" points="103,229.19,97,247.19,109,247.19,103,229.19" style="stroke:#181818;stroke-width:1;"/><text fill="#000000" font-family="sans-serif" font-size="13" lengthAdjust="spacing" textLength="76.9082" x="104" y="272.0669">implements</text></g><!--link ServiceImpl to IRepository--><g class="link" data-entity-1="ent0004" data-entity-2="ent0005" data-link-type="dependency" data-source-line="41" id="lnk11"><path codeLine="41" d="M103,370.09 C103,392.07 103,415.95 103,440.91" fill="none" id="ServiceImpl-to-IRepository" style="stroke:#181818;stroke-width:1;stroke-dasharray:7,7;"/><polygon fill="#181818" points="103,446.91,107,437.91,103,441.91,99,437.91,103,446.91" style="stroke:#181818;stroke-width:1;"/><text fill="#000000" font-family="sans-serif" font-size="13" lengthAdjust="spacing" textLength="76.0894" x="104" y="413.0669">depends on</text></g><!--reverse link IRepository to RepositoryImpl--><g class="link" data-entity-1="ent0005" data-entity-2="ent0006" data-link-type="extension" data-source-line="42" id="lnk12"><path codeLine="42" d="M103,562.41 C103,586.27 103,597.02 103,620.85" fill="none" id="IRepository-backto-RepositoryImpl" style="stroke:#181818;stroke-width:1;stroke-dasharray:7,7;"/><polygon fill="none" points="103,544.41,97,562.41,109,562.41,103,544.41" style="stroke:#181818;stroke-width:1;"/><text fill="#000000" font-family="sans-serif" font-size="13" lengthAdjust="spacing" textLength="76.9082" x="104" y="587.0669">implements</text></g><!--link RepositoryImpl to DbContext--><g class="link" data-entity-1="ent0006" data-entity-2="ent0007" data-link-type="dependency" data-source-line="44" id="lnk13"><path codeLine="44" d="M103,718.41 C103,742.27 103,765.02 103,788.85" fill="none" id="RepositoryImpl-to-DbContext" style="stroke:#181818;stroke-width:1;stroke-dasharray:7,7;"/><polygon fill="#181818" points="103,794.85,107,785.85,103,789.85,99,785.85,103,794.85" style="stroke:#181818;stroke-width:1;"/><text fill="#000000" font-family="sans-serif" font-size="13" lengthAdjust="spacing" textLength="48.2168" x="104" y="761.0669">queries</text></g><!--link DbContext to BaseEntity--><g class="link" data-entity-1="ent0007" data-entity-2="ent0008" data-link-type="dependency" data-source-line="45" id="lnk14"><path codeLine="45" d="M103,892.41 C103,916.27 103,939.02 103,962.85" fill="none" id="DbContext-to-BaseEntity" style="stroke:#181818;stroke-width:1;stroke-dasharray:7,7;"/><polygon fill="#181818" points="103,968.85,107,959.85,103,963.85,99,959.85,103,968.85" style="stroke:#181818;stroke-width:1;"/><text fill="#000000" font-family="sans-serif" font-size="13" lengthAdjust="spacing" textLength="50.6226" x="104" y="935.0669">persists</text></g><?plantuml-src hP9DJiCm48NtFeMNL9LoWAYgr3yW4giM3k36Zs8fTO9dMZK2UdQSE4sSRjYGZQqtVfydRvmNYaYkIikkB0eu-IMa_sQpGLegmdpUojDdPNM1BJvF87wOY1yXZ6MuTvL3PZkui_6Rm9XkBiXFZEM9Z0NHItamUV3axQtTyUnO5NzRecksg4eoNBhwPdi2B-jCBwYs-OFHaw0kTAV0ik6wKzyghHZZGj_IW8wx-ZVyUj_4YWltCMyUVVYkptUztu6lczPtbUrgGA6sKsUiFfGzW08-0ZSp2gvRppulcUcEwZjwDKV8bOFVwWNVwQ7fHlV4w34aoNoOQYerAbXDihIYLsVVIJAQP2gDNt3qFqz2n9MM5Wrl38mABVDk56FiNR4X3zccqZzFr-GsQCs9AAHKLd1aYEaN?></g></svg>